<svg width="192" height="61" viewBox="0 0 192 61" fill="none" xmlns="http://www.w3.org/2000/svg">
<rect width="192" height="60" transform="translate(0 0.5)" fill="#FFB82B"/>
<path d="M44.46 36.69C42.6613 36.69 41.2617 36.0883 40.261 34.885C39.273 33.669 38.779 31.9653 38.779 29.774C38.779 27.6207 39.273 25.955 40.261 24.777C41.2617 23.599 42.6613 23.01 44.46 23.01C46.2587 23.01 47.652 23.599 48.64 24.777C49.6407 25.955 50.141 27.6207 50.141 29.774C50.141 31.9653 49.6407 33.669 48.64 34.885C47.652 36.0883 46.2587 36.69 44.46 36.69ZM44.46 34.885C45.5493 34.885 46.3537 34.4733 46.873 33.65C47.405 32.814 47.671 31.522 47.671 29.774C47.671 28.064 47.4113 26.81 46.892 26.012C46.3727 25.214 45.562 24.815 44.46 24.815C43.358 24.815 42.5473 25.214 42.028 26.012C41.5087 26.81 41.249 28.064 41.249 29.774C41.249 31.522 41.5087 32.814 42.028 33.65C42.56 34.4733 43.3707 34.885 44.46 34.885ZM61.2501 34.106C61.2501 34.6253 61.2691 35.0497 61.3071 35.379C61.3577 35.7083 61.4337 35.9933 61.5351 36.234C61.0537 36.4747 60.5344 36.595 59.9771 36.595C59.6477 36.595 59.4007 36.5 59.2361 36.31C59.0841 36.12 58.9827 35.7907 58.9321 35.322C58.5647 35.7527 58.0961 36.0883 57.5261 36.329C56.9687 36.5697 56.3607 36.69 55.7021 36.69C54.6127 36.69 53.7831 36.3923 53.2131 35.797C52.6557 35.2017 52.3771 34.3277 52.3771 33.175V26.05H54.6761V33.042C54.6761 33.802 54.8027 34.3467 55.0561 34.676C55.3094 34.9927 55.7274 35.151 56.3101 35.151C56.8294 35.151 57.3107 35.018 57.7541 34.752C58.1974 34.486 58.5837 34.0997 58.9131 33.593V26.05H61.2501V34.106ZM68.946 25.917C69.5033 25.917 69.9086 26.031 70.162 26.259C70.428 26.487 70.561 26.8353 70.561 27.304C70.561 27.4813 70.5356 27.6587 70.485 27.836C70.4343 28.0007 70.3646 28.1337 70.276 28.235C70.1366 28.1463 69.9656 28.083 69.763 28.045C69.573 28.007 69.3133 27.988 68.984 27.988C68.1606 27.988 67.5273 28.273 67.084 28.843C66.6406 29.4003 66.419 30.2047 66.419 31.256V36.5H64.12V26.05H66.419V27.608C66.685 27.076 67.0396 26.6643 67.483 26.373C67.9263 26.069 68.414 25.917 68.946 25.917ZM85.3918 36.5C85.2018 35.3727 84.9801 34.2137 84.7268 33.023H79.0838C78.8305 34.2137 78.6088 35.3727 78.4188 36.5H76.0438C76.4238 34.068 76.9938 31.7627 77.7538 29.584C78.5138 27.3927 79.4955 25.2647 80.6988 23.2H83.1308C84.3215 25.252 85.2968 27.3737 86.0568 29.565C86.8168 31.7437 87.3868 34.0553 87.7668 36.5H85.3918ZM84.2898 31.256C83.6945 29.0647 82.8965 27.0127 81.8958 25.1C80.8951 27.038 80.1035 29.09 79.5208 31.256H84.2898ZM94.6155 25.86C95.9835 25.86 97.0222 26.3097 97.7315 27.209C98.4535 28.0957 98.8145 29.4003 98.8145 31.123C98.8145 32.2377 98.6119 33.213 98.2065 34.049C97.8139 34.885 97.2502 35.5373 96.5155 36.006C95.7809 36.462 94.9322 36.69 93.9695 36.69C93.2729 36.69 92.5319 36.557 91.7465 36.291V40.775H89.4475V29.888C89.4475 28.9127 89.4095 28.1717 89.3335 27.665C89.2702 27.1583 89.1435 26.772 88.9535 26.506C89.2575 26.3413 89.5679 26.2147 89.8845 26.126C90.2139 26.0247 90.5115 25.974 90.7775 25.974C91.0182 25.974 91.2082 26.0627 91.3475 26.24C91.4995 26.4173 91.6072 26.696 91.6705 27.076C92.4432 26.2653 93.4249 25.86 94.6155 25.86ZM93.7035 35.113C94.5902 35.113 95.2679 34.771 95.7365 34.087C96.2179 33.403 96.4585 32.415 96.4585 31.123C96.4585 29.8563 96.2749 28.919 95.9075 28.311C95.5402 27.703 94.9702 27.399 94.1975 27.399C93.7289 27.399 93.2729 27.5067 92.8295 27.722C92.3989 27.9373 92.0379 28.2223 91.7465 28.577V34.695C92.3419 34.9737 92.9942 35.113 93.7035 35.113ZM105.971 25.86C107.339 25.86 108.378 26.3097 109.087 27.209C109.809 28.0957 110.17 29.4003 110.17 31.123C110.17 32.2377 109.967 33.213 109.562 34.049C109.169 34.885 108.606 35.5373 107.871 36.006C107.136 36.462 106.288 36.69 105.325 36.69C104.628 36.69 103.887 36.557 103.102 36.291V40.775H100.803V29.888C100.803 28.9127 100.765 28.1717 100.689 27.665C100.626 27.1583 100.499 26.772 100.309 26.506C100.613 26.3413 100.923 26.2147 101.24 26.126C101.569 26.0247 101.867 25.974 102.133 25.974C102.374 25.974 102.564 26.0627 102.703 26.24C102.855 26.4173 102.963 26.696 103.026 27.076C103.799 26.2653 104.78 25.86 105.971 25.86ZM105.059 35.113C105.946 35.113 106.623 34.771 107.092 34.087C107.573 33.403 107.814 32.415 107.814 31.123C107.814 29.8563 107.63 28.919 107.263 28.311C106.896 27.703 106.326 27.399 105.553 27.399C105.084 27.399 104.628 27.5067 104.185 27.722C103.754 27.9373 103.393 28.2223 103.102 28.577V34.695C103.697 34.9737 104.35 35.113 105.059 35.113ZM116.965 25.917C117.523 25.917 117.928 26.031 118.181 26.259C118.447 26.487 118.58 26.8353 118.58 27.304C118.58 27.4813 118.555 27.6587 118.504 27.836C118.454 28.0007 118.384 28.1337 118.295 28.235C118.156 28.1463 117.985 28.083 117.782 28.045C117.592 28.007 117.333 27.988 117.003 27.988C116.18 27.988 115.547 28.273 115.103 28.843C114.66 29.4003 114.438 30.2047 114.438 31.256V36.5H112.139V26.05H114.438V27.608C114.704 27.076 115.059 26.6643 115.502 26.373C115.946 26.069 116.433 25.917 116.965 25.917ZM124.219 36.69C122.699 36.69 121.534 36.2213 120.723 35.284C119.912 34.3467 119.507 33.004 119.507 31.256C119.507 29.508 119.912 28.1717 120.723 27.247C121.534 26.3223 122.699 25.86 124.219 25.86C125.739 25.86 126.898 26.3223 127.696 27.247C128.507 28.1717 128.912 29.508 128.912 31.256C128.912 33.0167 128.507 34.3657 127.696 35.303C126.885 36.2277 125.726 36.69 124.219 36.69ZM124.219 35.113C125.042 35.113 125.638 34.809 126.005 34.201C126.385 33.5803 126.575 32.5987 126.575 31.256C126.575 29.926 126.385 28.957 126.005 28.349C125.638 27.741 125.042 27.437 124.219 27.437C123.396 27.437 122.794 27.741 122.414 28.349C122.047 28.9443 121.863 29.9133 121.863 31.256C121.863 32.6113 122.047 33.593 122.414 34.201C122.794 34.809 123.396 35.113 124.219 35.113ZM135.287 36.69C133.603 36.69 132.323 36.2277 131.449 35.303C130.588 34.3657 130.157 33.004 130.157 31.218C130.157 29.5587 130.601 28.254 131.487 27.304C132.374 26.3413 133.59 25.86 135.135 25.86C136.364 25.86 137.365 26.164 138.137 26.772C138.923 27.3673 139.385 28.1907 139.524 29.242C138.942 29.584 138.435 29.755 138.004 29.755C137.827 29.755 137.681 29.7043 137.567 29.603C137.466 29.489 137.371 29.299 137.282 29.033C137.118 28.4883 136.858 28.0893 136.503 27.836C136.161 27.57 135.705 27.437 135.135 27.437C134.312 27.437 133.666 27.7727 133.197 28.444C132.741 29.1027 132.513 30.0273 132.513 31.218C132.513 32.4847 132.748 33.4473 133.216 34.106C133.698 34.752 134.388 35.075 135.287 35.075C135.946 35.075 136.478 34.885 136.883 34.505C137.301 34.1123 137.612 33.5043 137.814 32.681C138.334 32.681 138.714 32.795 138.954 33.023C139.208 33.2383 139.334 33.5677 139.334 34.011C139.334 34.4797 139.144 34.923 138.764 35.341C138.397 35.7463 137.903 36.0757 137.282 36.329C136.662 36.5697 135.997 36.69 135.287 36.69ZM147.549 25.86C148.512 25.86 149.278 26.1513 149.848 26.734C150.418 27.3167 150.703 28.1083 150.703 29.109V36.5H148.385V29.356C148.385 28.748 148.252 28.2983 147.986 28.007C147.733 27.703 147.334 27.551 146.789 27.551C146.32 27.551 145.833 27.6523 145.326 27.855C144.832 28.0577 144.344 28.3553 143.863 28.748V36.5H141.545V21.471H143.863V27.266C144.357 26.8227 144.927 26.4807 145.573 26.24C146.232 25.9867 146.89 25.86 147.549 25.86Z" fill="white"/>
</svg>
