<svg width="194" height="61" viewBox="0 0 194 61" fill="none" xmlns="http://www.w3.org/2000/svg">
<path d="M0 0.5H194V60.5H0V0.5Z" fill="#091242"/>
<mask id="mask0_105_527" style="mask-type:alpha" maskUnits="userSpaceOnUse" x="0" y="0" width="194" height="61">
<path d="M0 0.5H194V60.5H0V0.5Z" fill="#FFB629"/>
</mask>
<g mask="url(#mask0_105_527)">
<circle cx="185" cy="62.5" r="26" fill="#1F2A69"/>
</g>
<path d="M62.1946 35.044V36.5H55.6026V25.3H57.6346V35.044H62.1946ZM71.0697 31.508C71.0697 31.6893 71.0484 31.9933 71.0057 32.42H65.1177C65.171 33.3373 65.3844 34.0467 65.7577 34.548C66.131 35.0493 66.6377 35.3 67.2777 35.3C67.715 35.3 68.0724 35.2147 68.3497 35.044C68.6377 34.8627 68.963 34.516 69.3257 34.004C69.3897 33.908 69.5017 33.86 69.6617 33.86C69.9604 33.86 70.371 34.0467 70.8937 34.42C70.595 35.1453 70.131 35.7 69.5017 36.084C68.883 36.468 68.1417 36.66 67.2777 36.66C65.987 36.66 64.9684 36.2547 64.2217 35.444C63.4857 34.6227 63.1177 33.5027 63.1177 32.084C63.1177 30.676 63.491 29.5667 64.2377 28.756C64.9844 27.9453 66.0084 27.54 67.3097 27.54C68.5044 27.54 69.427 27.8867 70.0777 28.58C70.739 29.2733 71.0697 30.2493 71.0697 31.508ZM69.1017 31.236C69.1017 29.6467 68.4884 28.852 67.2617 28.852C66.6537 28.852 66.1684 29.0547 65.8057 29.46C65.4537 29.8547 65.235 30.4467 65.1497 31.236H69.1017ZM79.5376 33.556C79.5376 34.3027 79.5749 34.852 79.6496 35.204C79.7242 35.556 79.8629 35.86 80.0656 36.116C79.8842 36.2547 79.6496 36.372 79.3616 36.468C79.0842 36.5533 78.8282 36.596 78.5936 36.596C78.0816 36.596 77.7722 36.1747 77.6656 35.332C77.0789 36.2173 76.1669 36.66 74.9296 36.66C74.1402 36.66 73.5002 36.452 73.0096 36.036C72.5296 35.6093 72.2896 35.0547 72.2896 34.372C72.2896 33.4013 72.7216 32.6653 73.5856 32.164C74.4496 31.652 75.7882 31.348 77.6016 31.252V30.532C77.6016 29.4867 77.0522 28.964 75.9536 28.964C75.5589 28.964 75.1856 29.044 74.8336 29.204C74.4816 29.3533 74.0656 29.6147 73.5856 29.988C73.5109 30.0413 73.4362 30.068 73.3616 30.068C73.1909 30.068 73.0096 29.972 72.8176 29.78C72.6256 29.5773 72.4549 29.3053 72.3056 28.964C72.7429 28.5373 73.3136 28.196 74.0176 27.94C74.7216 27.6733 75.4362 27.54 76.1616 27.54C77.2389 27.54 78.0709 27.8013 78.6576 28.324C79.2442 28.8467 79.5376 29.5827 79.5376 30.532V33.556ZM75.5056 35.332C76.3269 35.332 77.0256 34.82 77.6016 33.796V32.356C75.3829 32.452 74.2736 33.0653 74.2736 34.196C74.2736 34.5587 74.3802 34.8413 74.5936 35.044C74.8069 35.236 75.1109 35.332 75.5056 35.332ZM85.8644 27.588C86.3338 27.588 86.6751 27.684 86.8884 27.876C87.1124 28.068 87.2244 28.3613 87.2244 28.756C87.2244 28.9053 87.2031 29.0547 87.1604 29.204C87.1178 29.3427 87.0591 29.4547 86.9844 29.54C86.8671 29.4653 86.7231 29.412 86.5524 29.38C86.3924 29.348 86.1738 29.332 85.8964 29.332C85.2031 29.332 84.6698 29.572 84.2964 30.052C83.9231 30.5213 83.7364 31.1987 83.7364 32.084V36.5H81.8004V27.7H83.7364V29.012C83.9604 28.564 84.2591 28.2173 84.6324 27.972C85.0058 27.716 85.4164 27.588 85.8644 27.588ZM96.0046 34.34C96.0046 34.916 96.0206 35.332 96.0526 35.588C96.0846 35.844 96.1539 36.0733 96.2606 36.276C95.7592 36.4787 95.2312 36.58 94.6766 36.58C94.4526 36.58 94.2926 36.4573 94.1966 36.212C94.1112 35.956 94.0686 35.508 94.0686 34.868V30.644C94.0686 30.0253 93.9672 29.588 93.7646 29.332C93.5619 29.0653 93.2206 28.932 92.7406 28.932C92.0472 28.932 91.3112 29.2733 90.5326 29.956V36.5H88.5966V30.612C88.5966 29.2253 88.5326 28.34 88.4046 27.956C89.0232 27.7427 89.5459 27.636 89.9726 27.636C90.1752 27.636 90.3192 27.7107 90.4046 27.86C90.4899 28.0093 90.5326 28.244 90.5326 28.564V28.756C91.0659 28.308 91.5406 27.9933 91.9566 27.812C92.3726 27.6307 92.8099 27.54 93.2686 27.54C94.1859 27.54 94.8686 27.7907 95.3166 28.292C95.7752 28.7827 96.0046 29.5347 96.0046 30.548V34.34ZM111.831 36.5C111.81 34.5693 111.746 32.9267 111.639 31.572C111.533 30.2067 111.362 28.868 111.127 27.556C110.711 28.6547 110.354 29.6893 110.055 30.66C109.757 31.6307 109.357 33.06 108.855 34.948H107.271C106.834 33.22 106.461 31.8493 106.151 30.836C105.853 29.812 105.485 28.7187 105.047 27.556C104.823 28.868 104.653 30.2067 104.535 31.572C104.429 32.9373 104.354 34.58 104.311 36.5H102.311C102.354 34.2387 102.482 32.2227 102.695 30.452C102.919 28.6707 103.261 26.9533 103.719 25.3H105.975C106.541 26.676 106.962 27.7907 107.239 28.644C107.527 29.4867 107.799 30.436 108.055 31.492C108.322 30.4573 108.599 29.524 108.887 28.692C109.186 27.8493 109.623 26.7187 110.199 25.3H112.455C112.935 26.964 113.287 28.6867 113.511 30.468C113.735 32.2493 113.858 34.26 113.879 36.5H111.831ZM119.301 36.66C118.021 36.66 117.039 36.2653 116.357 35.476C115.674 34.6867 115.333 33.556 115.333 32.084C115.333 30.612 115.674 29.4867 116.357 28.708C117.039 27.9293 118.021 27.54 119.301 27.54C120.581 27.54 121.557 27.9293 122.229 28.708C122.911 29.4867 123.253 30.612 123.253 32.084C123.253 33.5667 122.911 34.7027 122.229 35.492C121.546 36.2707 120.57 36.66 119.301 36.66ZM119.301 35.332C119.994 35.332 120.495 35.076 120.805 34.564C121.125 34.0413 121.285 33.2147 121.285 32.084C121.285 30.964 121.125 30.148 120.805 29.636C120.495 29.124 119.994 28.868 119.301 28.868C118.607 28.868 118.101 29.124 117.781 29.636C117.471 30.1373 117.317 30.9533 117.317 32.084C117.317 33.2253 117.471 34.052 117.781 34.564C118.101 35.076 118.607 35.332 119.301 35.332ZM128.989 27.588C129.459 27.588 129.8 27.684 130.013 27.876C130.237 28.068 130.349 28.3613 130.349 28.756C130.349 28.9053 130.328 29.0547 130.285 29.204C130.243 29.3427 130.184 29.4547 130.109 29.54C129.992 29.4653 129.848 29.412 129.677 29.38C129.517 29.348 129.299 29.332 129.021 29.332C128.328 29.332 127.795 29.572 127.421 30.052C127.048 30.5213 126.861 31.1987 126.861 32.084V36.5H124.925V27.7H126.861V29.012C127.085 28.564 127.384 28.2173 127.757 27.972C128.131 27.716 128.541 27.588 128.989 27.588ZM139.242 31.508C139.242 31.6893 139.22 31.9933 139.178 32.42H133.29C133.343 33.3373 133.556 34.0467 133.93 34.548C134.303 35.0493 134.81 35.3 135.45 35.3C135.887 35.3 136.244 35.2147 136.522 35.044C136.81 34.8627 137.135 34.516 137.498 34.004C137.562 33.908 137.674 33.86 137.834 33.86C138.132 33.86 138.543 34.0467 139.066 34.42C138.767 35.1453 138.303 35.7 137.674 36.084C137.055 36.468 136.314 36.66 135.45 36.66C134.159 36.66 133.14 36.2547 132.394 35.444C131.658 34.6227 131.29 33.5027 131.29 32.084C131.29 30.676 131.663 29.5667 132.41 28.756C133.156 27.9453 134.18 27.54 135.482 27.54C136.676 27.54 137.599 27.8867 138.25 28.58C138.911 29.2733 139.242 30.2493 139.242 31.508ZM137.274 31.236C137.274 29.6467 136.66 28.852 135.434 28.852C134.826 28.852 134.34 29.0547 133.978 29.46C133.626 29.8547 133.407 30.4467 133.322 31.236H137.274Z" fill="white"/>
</svg>
