<svg width="20" height="20" viewBox="0 0 20 20" fill="none" xmlns="http://www.w3.org/2000/svg">
<path d="M14.0759 2.03211C15.173 2.03527 16.2242 2.45603 17 3.20252C17.7757 3.94901 18.213 4.96055 18.2162 6.01624V13.9836C18.213 15.0393 17.7757 16.0509 17 16.7974C16.2242 17.5438 15.173 17.9646 14.0759 17.9678H5.79618C4.69911 17.9646 3.6479 17.5438 2.87215 16.7974C2.0964 16.0509 1.65914 15.0393 1.65586 13.9836V6.01624C1.65914 4.96055 2.0964 3.94901 2.87215 3.20252C3.6479 2.45603 4.69911 2.03527 5.79618 2.03211H14.0759ZM14.0759 0.438721H5.79618C2.60821 0.438721 0 2.94854 0 6.01624V13.9836C0 17.0513 2.60821 19.5612 5.79618 19.5612H14.0759C17.2639 19.5612 19.8721 17.0513 19.8721 13.9836V6.01624C19.8721 2.94854 17.2639 0.438721 14.0759 0.438721Z" fill="white"/>
<path d="M15.3187 6.01628C15.073 6.01628 14.8329 5.94619 14.6286 5.81486C14.4244 5.68354 14.2652 5.49688 14.1712 5.27849C14.0772 5.06011 14.0526 4.8198 14.1005 4.58797C14.1484 4.35613 14.2667 4.14317 14.4404 3.97603C14.6141 3.80888 14.8354 3.69506 15.0764 3.64894C15.3173 3.60283 15.567 3.62649 15.794 3.71695C16.0209 3.80741 16.2149 3.9606 16.3513 4.15714C16.4878 4.35368 16.5607 4.58475 16.5607 4.82113C16.561 4.97817 16.5291 5.13374 16.4668 5.27889C16.4045 5.42405 16.3131 5.55594 16.1977 5.66698C16.0823 5.77803 15.9452 5.86605 15.7944 5.92599C15.6435 5.98594 15.4819 6.01662 15.3187 6.01628ZM9.93678 6.81277C10.5919 6.81277 11.2322 6.99969 11.7769 7.34991C12.3216 7.70012 12.7461 8.1979 12.9968 8.78029C13.2475 9.36267 13.3131 10.0035 13.1853 10.6218C13.0575 11.24 12.742 11.8079 12.2788 12.2537C11.8156 12.6994 11.2254 13.003 10.5829 13.126C9.94045 13.2489 9.27449 13.1858 8.66927 12.9446C8.06405 12.7034 7.54676 12.2948 7.18281 11.7707C6.81887 11.2466 6.62461 10.6304 6.62461 9.99998C6.62555 9.15496 6.97481 8.3448 7.59576 7.74728C8.21671 7.14975 9.05863 6.81367 9.93678 6.81277ZM9.93678 5.21937C8.9542 5.21937 7.99368 5.49975 7.17669 6.02505C6.3597 6.55035 5.72294 7.29698 5.34692 8.17052C4.9709 9.04406 4.87252 10.0053 5.06421 10.9326C5.2559 11.86 5.72906 12.7118 6.42385 13.3804C7.11864 14.049 8.00386 14.5043 8.96756 14.6887C9.93127 14.8732 10.9302 14.7785 11.838 14.4167C12.7457 14.0549 13.5216 13.4421 14.0675 12.6559C14.6134 11.8698 14.9048 10.9455 14.9048 9.99998C14.9048 8.73208 14.3814 7.51612 13.4497 6.61958C12.518 5.72304 11.2544 5.21937 9.93678 5.21937Z" fill="white"/>
</svg>
