<svg width="20" height="20" viewBox="0 0 20 20" fill="none" xmlns="http://www.w3.org/2000/svg">
<path d="M18.4415 0.290771H2.2354C1.34987 0.290771 0.576172 0.927936 0.576172 1.80306V18.0451C0.576172 18.925 1.34987 19.7091 2.2354 19.7091H18.4367C19.327 19.7091 19.9945 18.9198 19.9945 18.0451V1.80306C19.9997 0.927936 19.327 0.290771 18.4415 0.290771ZM6.59543 16.4769H3.81358V7.82752H6.59543V16.4769ZM5.30073 6.51245H5.28079C4.39049 6.51245 3.81401 5.84971 3.81401 5.0201C3.81401 4.17531 4.40566 3.52818 5.3159 3.52818C6.22613 3.52818 6.78311 4.17054 6.80305 5.0201C6.80262 5.84971 6.22613 6.51245 5.30073 6.51245ZM16.7623 16.4769H13.9805V11.7476C13.9805 10.6146 13.5756 9.84044 12.5692 9.84044C11.8002 9.84044 11.3451 10.3606 11.1427 10.8673C11.0669 11.0493 11.0465 11.2973 11.0465 11.5504V16.4769H8.26463V7.82752H11.0465V9.0312C11.4513 8.45472 12.0837 7.6251 13.5553 7.6251C15.3814 7.6251 16.7628 8.82878 16.7628 11.4238L16.7623 16.4769Z" fill="white"/>
</svg>
