<svg width="20" height="16" viewBox="0 0 20 16" fill="none" xmlns="http://www.w3.org/2000/svg">
<g id="Twitter">
<path id="Vector" d="M19.5756 2.15345C18.8566 2.46567 18.0958 2.67137 17.3172 2.76404C18.1354 2.2853 18.7507 1.52473 19.0477 0.624988C18.2742 1.07698 17.4293 1.39412 16.5493 1.56282C16.1787 1.17473 15.733 0.865993 15.2393 0.655376C14.7456 0.44476 14.2143 0.336662 13.6775 0.337653C11.5041 0.337653 9.74533 2.06965 9.74533 4.20471C9.74379 4.50169 9.77785 4.79778 9.84677 5.08667C8.28834 5.01366 6.76231 4.61639 5.36632 3.92027C3.97033 3.22415 2.73512 2.24451 1.73972 1.04402C1.39051 1.63231 1.20583 2.30352 1.20497 2.98752C1.20497 4.32842 1.90506 5.51368 2.96217 6.20807C2.33586 6.19322 1.72238 6.02757 1.17382 5.72519V5.77308C1.17382 7.64874 2.53166 9.20913 4.32879 9.56431C3.99084 9.65433 3.64259 9.69995 3.29284 9.69999C3.04467 9.70043 2.79706 9.67636 2.55362 9.62816C3.05322 11.1646 4.5073 12.282 6.22975 12.3139C4.83014 13.3918 3.11178 13.9744 1.34475 13.9701C1.0311 13.9696 0.717739 13.951 0.40625 13.9142C2.20385 15.0613 4.29342 15.668 6.42624 15.6622C13.6691 15.6622 17.6259 9.76784 17.6259 4.65566C17.6259 4.48805 17.6216 4.32044 17.6136 4.15682C18.3816 3.6109 19.046 2.93249 19.5756 2.15345Z" fill="white"/>
</g>
</svg>
