<svg width="604" height="61" viewBox="0 0 604 61" fill="none" xmlns="http://www.w3.org/2000/svg">
<rect width="192" height="60" transform="translate(0 0.5)" fill="#FFB82B"/>
<path d="M44.46 36.69C42.6613 36.69 41.2617 36.0883 40.261 34.885C39.273 33.669 38.779 31.9653 38.779 29.774C38.779 27.6207 39.273 25.955 40.261 24.777C41.2617 23.599 42.6613 23.01 44.46 23.01C46.2587 23.01 47.652 23.599 48.64 24.777C49.6407 25.955 50.141 27.6207 50.141 29.774C50.141 31.9653 49.6407 33.669 48.64 34.885C47.652 36.0883 46.2587 36.69 44.46 36.69ZM44.46 34.885C45.5493 34.885 46.3537 34.4733 46.873 33.65C47.405 32.814 47.671 31.522 47.671 29.774C47.671 28.064 47.4113 26.81 46.892 26.012C46.3727 25.214 45.562 24.815 44.46 24.815C43.358 24.815 42.5473 25.214 42.028 26.012C41.5087 26.81 41.249 28.064 41.249 29.774C41.249 31.522 41.5087 32.814 42.028 33.65C42.56 34.4733 43.3707 34.885 44.46 34.885ZM61.2501 34.106C61.2501 34.6253 61.2691 35.0497 61.3071 35.379C61.3577 35.7083 61.4337 35.9933 61.5351 36.234C61.0537 36.4747 60.5344 36.595 59.9771 36.595C59.6477 36.595 59.4007 36.5 59.2361 36.31C59.0841 36.12 58.9827 35.7907 58.9321 35.322C58.5647 35.7527 58.0961 36.0883 57.5261 36.329C56.9687 36.5697 56.3607 36.69 55.7021 36.69C54.6127 36.69 53.7831 36.3923 53.2131 35.797C52.6557 35.2017 52.3771 34.3277 52.3771 33.175V26.05H54.6761V33.042C54.6761 33.802 54.8027 34.3467 55.0561 34.676C55.3094 34.9927 55.7274 35.151 56.3101 35.151C56.8294 35.151 57.3107 35.018 57.7541 34.752C58.1974 34.486 58.5837 34.0997 58.9131 33.593V26.05H61.2501V34.106ZM68.946 25.917C69.5033 25.917 69.9086 26.031 70.162 26.259C70.428 26.487 70.561 26.8353 70.561 27.304C70.561 27.4813 70.5356 27.6587 70.485 27.836C70.4343 28.0007 70.3646 28.1337 70.276 28.235C70.1366 28.1463 69.9656 28.083 69.763 28.045C69.573 28.007 69.3133 27.988 68.984 27.988C68.1606 27.988 67.5273 28.273 67.084 28.843C66.6406 29.4003 66.419 30.2047 66.419 31.256V36.5H64.12V26.05H66.419V27.608C66.685 27.076 67.0396 26.6643 67.483 26.373C67.9263 26.069 68.414 25.917 68.946 25.917ZM85.3918 36.5C85.2018 35.3727 84.9801 34.2137 84.7268 33.023H79.0838C78.8305 34.2137 78.6088 35.3727 78.4188 36.5H76.0438C76.4238 34.068 76.9938 31.7627 77.7538 29.584C78.5138 27.3927 79.4955 25.2647 80.6988 23.2H83.1308C84.3215 25.252 85.2968 27.3737 86.0568 29.565C86.8168 31.7437 87.3868 34.0553 87.7668 36.5H85.3918ZM84.2898 31.256C83.6945 29.0647 82.8965 27.0127 81.8958 25.1C80.8951 27.038 80.1035 29.09 79.5208 31.256H84.2898ZM94.6155 25.86C95.9835 25.86 97.0222 26.3097 97.7315 27.209C98.4535 28.0957 98.8145 29.4003 98.8145 31.123C98.8145 32.2377 98.6119 33.213 98.2065 34.049C97.8139 34.885 97.2502 35.5373 96.5155 36.006C95.7809 36.462 94.9322 36.69 93.9695 36.69C93.2729 36.69 92.5319 36.557 91.7465 36.291V40.775H89.4475V29.888C89.4475 28.9127 89.4095 28.1717 89.3335 27.665C89.2702 27.1583 89.1435 26.772 88.9535 26.506C89.2575 26.3413 89.5679 26.2147 89.8845 26.126C90.2139 26.0247 90.5115 25.974 90.7775 25.974C91.0182 25.974 91.2082 26.0627 91.3475 26.24C91.4995 26.4173 91.6072 26.696 91.6705 27.076C92.4432 26.2653 93.4249 25.86 94.6155 25.86ZM93.7035 35.113C94.5902 35.113 95.2679 34.771 95.7365 34.087C96.2179 33.403 96.4585 32.415 96.4585 31.123C96.4585 29.8563 96.2749 28.919 95.9075 28.311C95.5402 27.703 94.9702 27.399 94.1975 27.399C93.7289 27.399 93.2729 27.5067 92.8295 27.722C92.3989 27.9373 92.0379 28.2223 91.7465 28.577V34.695C92.3419 34.9737 92.9942 35.113 93.7035 35.113ZM105.971 25.86C107.339 25.86 108.378 26.3097 109.087 27.209C109.809 28.0957 110.17 29.4003 110.17 31.123C110.17 32.2377 109.967 33.213 109.562 34.049C109.169 34.885 108.606 35.5373 107.871 36.006C107.136 36.462 106.288 36.69 105.325 36.69C104.628 36.69 103.887 36.557 103.102 36.291V40.775H100.803V29.888C100.803 28.9127 100.765 28.1717 100.689 27.665C100.626 27.1583 100.499 26.772 100.309 26.506C100.613 26.3413 100.923 26.2147 101.24 26.126C101.569 26.0247 101.867 25.974 102.133 25.974C102.374 25.974 102.564 26.0627 102.703 26.24C102.855 26.4173 102.963 26.696 103.026 27.076C103.799 26.2653 104.78 25.86 105.971 25.86ZM105.059 35.113C105.946 35.113 106.623 34.771 107.092 34.087C107.573 33.403 107.814 32.415 107.814 31.123C107.814 29.8563 107.63 28.919 107.263 28.311C106.896 27.703 106.326 27.399 105.553 27.399C105.084 27.399 104.628 27.5067 104.185 27.722C103.754 27.9373 103.393 28.2223 103.102 28.577V34.695C103.697 34.9737 104.35 35.113 105.059 35.113ZM116.965 25.917C117.523 25.917 117.928 26.031 118.181 26.259C118.447 26.487 118.58 26.8353 118.58 27.304C118.58 27.4813 118.555 27.6587 118.504 27.836C118.454 28.0007 118.384 28.1337 118.295 28.235C118.156 28.1463 117.985 28.083 117.782 28.045C117.592 28.007 117.333 27.988 117.003 27.988C116.18 27.988 115.547 28.273 115.103 28.843C114.66 29.4003 114.438 30.2047 114.438 31.256V36.5H112.139V26.05H114.438V27.608C114.704 27.076 115.059 26.6643 115.502 26.373C115.946 26.069 116.433 25.917 116.965 25.917ZM124.219 36.69C122.699 36.69 121.534 36.2213 120.723 35.284C119.912 34.3467 119.507 33.004 119.507 31.256C119.507 29.508 119.912 28.1717 120.723 27.247C121.534 26.3223 122.699 25.86 124.219 25.86C125.739 25.86 126.898 26.3223 127.696 27.247C128.507 28.1717 128.912 29.508 128.912 31.256C128.912 33.0167 128.507 34.3657 127.696 35.303C126.885 36.2277 125.726 36.69 124.219 36.69ZM124.219 35.113C125.042 35.113 125.638 34.809 126.005 34.201C126.385 33.5803 126.575 32.5987 126.575 31.256C126.575 29.926 126.385 28.957 126.005 28.349C125.638 27.741 125.042 27.437 124.219 27.437C123.396 27.437 122.794 27.741 122.414 28.349C122.047 28.9443 121.863 29.9133 121.863 31.256C121.863 32.6113 122.047 33.593 122.414 34.201C122.794 34.809 123.396 35.113 124.219 35.113ZM135.287 36.69C133.603 36.69 132.323 36.2277 131.449 35.303C130.588 34.3657 130.157 33.004 130.157 31.218C130.157 29.5587 130.601 28.254 131.487 27.304C132.374 26.3413 133.59 25.86 135.135 25.86C136.364 25.86 137.365 26.164 138.137 26.772C138.923 27.3673 139.385 28.1907 139.524 29.242C138.942 29.584 138.435 29.755 138.004 29.755C137.827 29.755 137.681 29.7043 137.567 29.603C137.466 29.489 137.371 29.299 137.282 29.033C137.118 28.4883 136.858 28.0893 136.503 27.836C136.161 27.57 135.705 27.437 135.135 27.437C134.312 27.437 133.666 27.7727 133.197 28.444C132.741 29.1027 132.513 30.0273 132.513 31.218C132.513 32.4847 132.748 33.4473 133.216 34.106C133.698 34.752 134.388 35.075 135.287 35.075C135.946 35.075 136.478 34.885 136.883 34.505C137.301 34.1123 137.612 33.5043 137.814 32.681C138.334 32.681 138.714 32.795 138.954 33.023C139.208 33.2383 139.334 33.5677 139.334 34.011C139.334 34.4797 139.144 34.923 138.764 35.341C138.397 35.7463 137.903 36.0757 137.282 36.329C136.662 36.5697 135.997 36.69 135.287 36.69ZM147.549 25.86C148.512 25.86 149.278 26.1513 149.848 26.734C150.418 27.3167 150.703 28.1083 150.703 29.109V36.5H148.385V29.356C148.385 28.748 148.252 28.2983 147.986 28.007C147.733 27.703 147.334 27.551 146.789 27.551C146.32 27.551 145.833 27.6523 145.326 27.855C144.832 28.0577 144.344 28.3553 143.863 28.748V36.5H141.545V21.471H143.863V27.266C144.357 26.8227 144.927 26.4807 145.573 26.24C146.232 25.9867 146.89 25.86 147.549 25.86Z" fill="white"/>
<rect width="192" height="60" transform="translate(206 0.5)" fill="#F4F4F4"/>
<path d="M250.46 36.69C248.661 36.69 247.262 36.0883 246.261 34.885C245.273 33.669 244.779 31.9653 244.779 29.774C244.779 27.6207 245.273 25.955 246.261 24.777C247.262 23.599 248.661 23.01 250.46 23.01C252.259 23.01 253.652 23.599 254.64 24.777C255.641 25.955 256.141 27.6207 256.141 29.774C256.141 31.9653 255.641 33.669 254.64 34.885C253.652 36.0883 252.259 36.69 250.46 36.69ZM250.46 34.885C251.549 34.885 252.354 34.4733 252.873 33.65C253.405 32.814 253.671 31.522 253.671 29.774C253.671 28.064 253.411 26.81 252.892 26.012C252.373 25.214 251.562 24.815 250.46 24.815C249.358 24.815 248.547 25.214 248.028 26.012C247.509 26.81 247.249 28.064 247.249 29.774C247.249 31.522 247.509 32.814 248.028 33.65C248.56 34.4733 249.371 34.885 250.46 34.885ZM267.25 34.106C267.25 34.6253 267.269 35.0497 267.307 35.379C267.358 35.7083 267.434 35.9933 267.535 36.234C267.054 36.4747 266.534 36.595 265.977 36.595C265.648 36.595 265.401 36.5 265.236 36.31C265.084 36.12 264.983 35.7907 264.932 35.322C264.565 35.7527 264.096 36.0883 263.526 36.329C262.969 36.5697 262.361 36.69 261.702 36.69C260.613 36.69 259.783 36.3923 259.213 35.797C258.656 35.2017 258.377 34.3277 258.377 33.175V26.05H260.676V33.042C260.676 33.802 260.803 34.3467 261.056 34.676C261.309 34.9927 261.727 35.151 262.31 35.151C262.829 35.151 263.311 35.018 263.754 34.752C264.197 34.486 264.584 34.0997 264.913 33.593V26.05H267.25V34.106ZM274.946 25.917C275.503 25.917 275.909 26.031 276.162 26.259C276.428 26.487 276.561 26.8353 276.561 27.304C276.561 27.4813 276.536 27.6587 276.485 27.836C276.434 28.0007 276.365 28.1337 276.276 28.235C276.137 28.1463 275.966 28.083 275.763 28.045C275.573 28.007 275.313 27.988 274.984 27.988C274.161 27.988 273.527 28.273 273.084 28.843C272.641 29.4003 272.419 30.2047 272.419 31.256V36.5H270.12V26.05H272.419V27.608C272.685 27.076 273.04 26.6643 273.483 26.373C273.926 26.069 274.414 25.917 274.946 25.917ZM291.392 36.5C291.202 35.3727 290.98 34.2137 290.727 33.023H285.084C284.83 34.2137 284.609 35.3727 284.419 36.5H282.044C282.424 34.068 282.994 31.7627 283.754 29.584C284.514 27.3927 285.495 25.2647 286.699 23.2H289.131C290.321 25.252 291.297 27.3737 292.057 29.565C292.817 31.7437 293.387 34.0553 293.767 36.5H291.392ZM290.29 31.256C289.694 29.0647 288.896 27.0127 287.896 25.1C286.895 27.038 286.103 29.09 285.521 31.256H290.29ZM300.616 25.86C301.984 25.86 303.022 26.3097 303.732 27.209C304.454 28.0957 304.815 29.4003 304.815 31.123C304.815 32.2377 304.612 33.213 304.207 34.049C303.814 34.885 303.25 35.5373 302.516 36.006C301.781 36.462 300.932 36.69 299.97 36.69C299.273 36.69 298.532 36.557 297.747 36.291V40.775H295.448V29.888C295.448 28.9127 295.41 28.1717 295.334 27.665C295.27 27.1583 295.144 26.772 294.954 26.506C295.258 26.3413 295.568 26.2147 295.885 26.126C296.214 26.0247 296.512 25.974 296.778 25.974C297.018 25.974 297.208 26.0627 297.348 26.24C297.5 26.4173 297.607 26.696 297.671 27.076C298.443 26.2653 299.425 25.86 300.616 25.86ZM299.704 35.113C300.59 35.113 301.268 34.771 301.737 34.087C302.218 33.403 302.459 32.415 302.459 31.123C302.459 29.8563 302.275 28.919 301.908 28.311C301.54 27.703 300.97 27.399 300.198 27.399C299.729 27.399 299.273 27.5067 298.83 27.722C298.399 27.9373 298.038 28.2223 297.747 28.577V34.695C298.342 34.9737 298.994 35.113 299.704 35.113ZM311.971 25.86C313.339 25.86 314.378 26.3097 315.087 27.209C315.809 28.0957 316.17 29.4003 316.17 31.123C316.17 32.2377 315.967 33.213 315.562 34.049C315.169 34.885 314.606 35.5373 313.871 36.006C313.136 36.462 312.288 36.69 311.325 36.69C310.628 36.69 309.887 36.557 309.102 36.291V40.775H306.803V29.888C306.803 28.9127 306.765 28.1717 306.689 27.665C306.626 27.1583 306.499 26.772 306.309 26.506C306.613 26.3413 306.923 26.2147 307.24 26.126C307.569 26.0247 307.867 25.974 308.133 25.974C308.374 25.974 308.564 26.0627 308.703 26.24C308.855 26.4173 308.963 26.696 309.026 27.076C309.799 26.2653 310.78 25.86 311.971 25.86ZM311.059 35.113C311.946 35.113 312.623 34.771 313.092 34.087C313.573 33.403 313.814 32.415 313.814 31.123C313.814 29.8563 313.63 28.919 313.263 28.311C312.896 27.703 312.326 27.399 311.553 27.399C311.084 27.399 310.628 27.5067 310.185 27.722C309.754 27.9373 309.393 28.2223 309.102 28.577V34.695C309.697 34.9737 310.35 35.113 311.059 35.113ZM322.965 25.917C323.523 25.917 323.928 26.031 324.181 26.259C324.447 26.487 324.58 26.8353 324.58 27.304C324.58 27.4813 324.555 27.6587 324.504 27.836C324.454 28.0007 324.384 28.1337 324.295 28.235C324.156 28.1463 323.985 28.083 323.782 28.045C323.592 28.007 323.333 27.988 323.003 27.988C322.18 27.988 321.547 28.273 321.103 28.843C320.66 29.4003 320.438 30.2047 320.438 31.256V36.5H318.139V26.05H320.438V27.608C320.704 27.076 321.059 26.6643 321.502 26.373C321.946 26.069 322.433 25.917 322.965 25.917ZM330.219 36.69C328.699 36.69 327.534 36.2213 326.723 35.284C325.912 34.3467 325.507 33.004 325.507 31.256C325.507 29.508 325.912 28.1717 326.723 27.247C327.534 26.3223 328.699 25.86 330.219 25.86C331.739 25.86 332.898 26.3223 333.696 27.247C334.507 28.1717 334.912 29.508 334.912 31.256C334.912 33.0167 334.507 34.3657 333.696 35.303C332.885 36.2277 331.726 36.69 330.219 36.69ZM330.219 35.113C331.042 35.113 331.638 34.809 332.005 34.201C332.385 33.5803 332.575 32.5987 332.575 31.256C332.575 29.926 332.385 28.957 332.005 28.349C331.638 27.741 331.042 27.437 330.219 27.437C329.396 27.437 328.794 27.741 328.414 28.349C328.047 28.9443 327.863 29.9133 327.863 31.256C327.863 32.6113 328.047 33.593 328.414 34.201C328.794 34.809 329.396 35.113 330.219 35.113ZM341.287 36.69C339.603 36.69 338.323 36.2277 337.449 35.303C336.588 34.3657 336.157 33.004 336.157 31.218C336.157 29.5587 336.601 28.254 337.487 27.304C338.374 26.3413 339.59 25.86 341.135 25.86C342.364 25.86 343.365 26.164 344.137 26.772C344.923 27.3673 345.385 28.1907 345.524 29.242C344.942 29.584 344.435 29.755 344.004 29.755C343.827 29.755 343.681 29.7043 343.567 29.603C343.466 29.489 343.371 29.299 343.282 29.033C343.118 28.4883 342.858 28.0893 342.503 27.836C342.161 27.57 341.705 27.437 341.135 27.437C340.312 27.437 339.666 27.7727 339.197 28.444C338.741 29.1027 338.513 30.0273 338.513 31.218C338.513 32.4847 338.748 33.4473 339.216 34.106C339.698 34.752 340.388 35.075 341.287 35.075C341.946 35.075 342.478 34.885 342.883 34.505C343.301 34.1123 343.612 33.5043 343.814 32.681C344.334 32.681 344.714 32.795 344.954 33.023C345.208 33.2383 345.334 33.5677 345.334 34.011C345.334 34.4797 345.144 34.923 344.764 35.341C344.397 35.7463 343.903 36.0757 343.282 36.329C342.662 36.5697 341.997 36.69 341.287 36.69ZM353.549 25.86C354.512 25.86 355.278 26.1513 355.848 26.734C356.418 27.3167 356.703 28.1083 356.703 29.109V36.5H354.385V29.356C354.385 28.748 354.252 28.2983 353.986 28.007C353.733 27.703 353.334 27.551 352.789 27.551C352.32 27.551 351.833 27.6523 351.326 27.855C350.832 28.0577 350.344 28.3553 349.863 28.748V36.5H347.545V21.471H349.863V27.266C350.357 26.8227 350.927 26.4807 351.573 26.24C352.232 25.9867 352.89 25.86 353.549 25.86Z" fill="#1C1F35"/>
<rect width="192" height="60" transform="translate(412 0.5)" fill="#F4F4F4"/>
<path d="M456.46 36.69C454.661 36.69 453.262 36.0883 452.261 34.885C451.273 33.669 450.779 31.9653 450.779 29.774C450.779 27.6207 451.273 25.955 452.261 24.777C453.262 23.599 454.661 23.01 456.46 23.01C458.259 23.01 459.652 23.599 460.64 24.777C461.641 25.955 462.141 27.6207 462.141 29.774C462.141 31.9653 461.641 33.669 460.64 34.885C459.652 36.0883 458.259 36.69 456.46 36.69ZM456.46 34.885C457.549 34.885 458.354 34.4733 458.873 33.65C459.405 32.814 459.671 31.522 459.671 29.774C459.671 28.064 459.411 26.81 458.892 26.012C458.373 25.214 457.562 24.815 456.46 24.815C455.358 24.815 454.547 25.214 454.028 26.012C453.509 26.81 453.249 28.064 453.249 29.774C453.249 31.522 453.509 32.814 454.028 33.65C454.56 34.4733 455.371 34.885 456.46 34.885ZM473.25 34.106C473.25 34.6253 473.269 35.0497 473.307 35.379C473.358 35.7083 473.434 35.9933 473.535 36.234C473.054 36.4747 472.534 36.595 471.977 36.595C471.648 36.595 471.401 36.5 471.236 36.31C471.084 36.12 470.983 35.7907 470.932 35.322C470.565 35.7527 470.096 36.0883 469.526 36.329C468.969 36.5697 468.361 36.69 467.702 36.69C466.613 36.69 465.783 36.3923 465.213 35.797C464.656 35.2017 464.377 34.3277 464.377 33.175V26.05H466.676V33.042C466.676 33.802 466.803 34.3467 467.056 34.676C467.309 34.9927 467.727 35.151 468.31 35.151C468.829 35.151 469.311 35.018 469.754 34.752C470.197 34.486 470.584 34.0997 470.913 33.593V26.05H473.25V34.106ZM480.946 25.917C481.503 25.917 481.909 26.031 482.162 26.259C482.428 26.487 482.561 26.8353 482.561 27.304C482.561 27.4813 482.536 27.6587 482.485 27.836C482.434 28.0007 482.365 28.1337 482.276 28.235C482.137 28.1463 481.966 28.083 481.763 28.045C481.573 28.007 481.313 27.988 480.984 27.988C480.161 27.988 479.527 28.273 479.084 28.843C478.641 29.4003 478.419 30.2047 478.419 31.256V36.5H476.12V26.05H478.419V27.608C478.685 27.076 479.04 26.6643 479.483 26.373C479.926 26.069 480.414 25.917 480.946 25.917ZM497.392 36.5C497.202 35.3727 496.98 34.2137 496.727 33.023H491.084C490.83 34.2137 490.609 35.3727 490.419 36.5H488.044C488.424 34.068 488.994 31.7627 489.754 29.584C490.514 27.3927 491.495 25.2647 492.699 23.2H495.131C496.321 25.252 497.297 27.3737 498.057 29.565C498.817 31.7437 499.387 34.0553 499.767 36.5H497.392ZM496.29 31.256C495.694 29.0647 494.896 27.0127 493.896 25.1C492.895 27.038 492.103 29.09 491.521 31.256H496.29ZM506.616 25.86C507.984 25.86 509.022 26.3097 509.732 27.209C510.454 28.0957 510.815 29.4003 510.815 31.123C510.815 32.2377 510.612 33.213 510.207 34.049C509.814 34.885 509.25 35.5373 508.516 36.006C507.781 36.462 506.932 36.69 505.97 36.69C505.273 36.69 504.532 36.557 503.747 36.291V40.775H501.448V29.888C501.448 28.9127 501.41 28.1717 501.334 27.665C501.27 27.1583 501.144 26.772 500.954 26.506C501.258 26.3413 501.568 26.2147 501.885 26.126C502.214 26.0247 502.512 25.974 502.778 25.974C503.018 25.974 503.208 26.0627 503.348 26.24C503.5 26.4173 503.607 26.696 503.671 27.076C504.443 26.2653 505.425 25.86 506.616 25.86ZM505.704 35.113C506.59 35.113 507.268 34.771 507.737 34.087C508.218 33.403 508.459 32.415 508.459 31.123C508.459 29.8563 508.275 28.919 507.908 28.311C507.54 27.703 506.97 27.399 506.198 27.399C505.729 27.399 505.273 27.5067 504.83 27.722C504.399 27.9373 504.038 28.2223 503.747 28.577V34.695C504.342 34.9737 504.994 35.113 505.704 35.113ZM517.971 25.86C519.339 25.86 520.378 26.3097 521.087 27.209C521.809 28.0957 522.17 29.4003 522.17 31.123C522.17 32.2377 521.967 33.213 521.562 34.049C521.169 34.885 520.606 35.5373 519.871 36.006C519.136 36.462 518.288 36.69 517.325 36.69C516.628 36.69 515.887 36.557 515.102 36.291V40.775H512.803V29.888C512.803 28.9127 512.765 28.1717 512.689 27.665C512.626 27.1583 512.499 26.772 512.309 26.506C512.613 26.3413 512.923 26.2147 513.24 26.126C513.569 26.0247 513.867 25.974 514.133 25.974C514.374 25.974 514.564 26.0627 514.703 26.24C514.855 26.4173 514.963 26.696 515.026 27.076C515.799 26.2653 516.78 25.86 517.971 25.86ZM517.059 35.113C517.946 35.113 518.623 34.771 519.092 34.087C519.573 33.403 519.814 32.415 519.814 31.123C519.814 29.8563 519.63 28.919 519.263 28.311C518.896 27.703 518.326 27.399 517.553 27.399C517.084 27.399 516.628 27.5067 516.185 27.722C515.754 27.9373 515.393 28.2223 515.102 28.577V34.695C515.697 34.9737 516.35 35.113 517.059 35.113ZM528.965 25.917C529.523 25.917 529.928 26.031 530.181 26.259C530.447 26.487 530.58 26.8353 530.58 27.304C530.58 27.4813 530.555 27.6587 530.504 27.836C530.454 28.0007 530.384 28.1337 530.295 28.235C530.156 28.1463 529.985 28.083 529.782 28.045C529.592 28.007 529.333 27.988 529.003 27.988C528.18 27.988 527.547 28.273 527.103 28.843C526.66 29.4003 526.438 30.2047 526.438 31.256V36.5H524.139V26.05H526.438V27.608C526.704 27.076 527.059 26.6643 527.502 26.373C527.946 26.069 528.433 25.917 528.965 25.917ZM536.219 36.69C534.699 36.69 533.534 36.2213 532.723 35.284C531.912 34.3467 531.507 33.004 531.507 31.256C531.507 29.508 531.912 28.1717 532.723 27.247C533.534 26.3223 534.699 25.86 536.219 25.86C537.739 25.86 538.898 26.3223 539.696 27.247C540.507 28.1717 540.912 29.508 540.912 31.256C540.912 33.0167 540.507 34.3657 539.696 35.303C538.885 36.2277 537.726 36.69 536.219 36.69ZM536.219 35.113C537.042 35.113 537.638 34.809 538.005 34.201C538.385 33.5803 538.575 32.5987 538.575 31.256C538.575 29.926 538.385 28.957 538.005 28.349C537.638 27.741 537.042 27.437 536.219 27.437C535.396 27.437 534.794 27.741 534.414 28.349C534.047 28.9443 533.863 29.9133 533.863 31.256C533.863 32.6113 534.047 33.593 534.414 34.201C534.794 34.809 535.396 35.113 536.219 35.113ZM547.287 36.69C545.603 36.69 544.323 36.2277 543.449 35.303C542.588 34.3657 542.157 33.004 542.157 31.218C542.157 29.5587 542.601 28.254 543.487 27.304C544.374 26.3413 545.59 25.86 547.135 25.86C548.364 25.86 549.365 26.164 550.137 26.772C550.923 27.3673 551.385 28.1907 551.524 29.242C550.942 29.584 550.435 29.755 550.004 29.755C549.827 29.755 549.681 29.7043 549.567 29.603C549.466 29.489 549.371 29.299 549.282 29.033C549.118 28.4883 548.858 28.0893 548.503 27.836C548.161 27.57 547.705 27.437 547.135 27.437C546.312 27.437 545.666 27.7727 545.197 28.444C544.741 29.1027 544.513 30.0273 544.513 31.218C544.513 32.4847 544.748 33.4473 545.216 34.106C545.698 34.752 546.388 35.075 547.287 35.075C547.946 35.075 548.478 34.885 548.883 34.505C549.301 34.1123 549.612 33.5043 549.814 32.681C550.334 32.681 550.714 32.795 550.954 33.023C551.208 33.2383 551.334 33.5677 551.334 34.011C551.334 34.4797 551.144 34.923 550.764 35.341C550.397 35.7463 549.903 36.0757 549.282 36.329C548.662 36.5697 547.997 36.69 547.287 36.69ZM559.549 25.86C560.512 25.86 561.278 26.1513 561.848 26.734C562.418 27.3167 562.703 28.1083 562.703 29.109V36.5H560.385V29.356C560.385 28.748 560.252 28.2983 559.986 28.007C559.733 27.703 559.334 27.551 558.789 27.551C558.32 27.551 557.833 27.6523 557.326 27.855C556.832 28.0577 556.344 28.3553 555.863 28.748V36.5H553.545V21.471H555.863V27.266C556.357 26.8227 556.927 26.4807 557.573 26.24C558.232 25.9867 558.89 25.86 559.549 25.86Z" fill="#1C1F35"/>
</svg>
