<svg width="50" height="56" viewBox="0 0 50 56" fill="none" xmlns="http://www.w3.org/2000/svg">
<g id="Icon">
<path id="Rectangle 67" d="M3.95898 18.512L25.0392 30.3464L24.6693 53.2758L3.95898 41.4413V18.512Z" fill="#FFD550"/>
<path id="Rectangle 68" d="M25.4092 4.82837L46.8592 17.0327L37.2437 22.2103L15.4238 10.3758L25.4092 4.82837Z" fill="#FFD550"/>
<g id="Box Icon">
<path id="Vector" d="M48.2499 41.2108V18.0032C48.2481 17.668 48.1579 17.3391 47.9885 17.0499C47.8191 16.7606 47.5764 16.5211 47.2849 16.3556L26.5722 4.7047C26.2931 4.54357 25.9765 4.45874 25.6542 4.45874C25.332 4.45874 25.0154 4.54357 24.7363 4.7047L4.02362 16.3556C3.73211 16.5211 3.48941 16.7606 3.31998 17.0499C3.15055 17.3391 3.06039 17.668 3.05859 18.0032V41.2108C3.06039 41.546 3.15055 41.8748 3.31998 42.1641C3.48941 42.4534 3.73211 42.6929 4.02362 42.8584L24.7363 54.5093C25.0154 54.6704 25.332 54.7552 25.6542 54.7552C25.9765 54.7552 26.2931 54.6704 26.5722 54.5093L47.2849 42.8584C47.5764 42.6929 47.8191 42.4534 47.9885 42.1641C48.1579 41.8748 48.2481 41.546 48.2499 41.2108V41.2108Z" stroke="#1C1F35" stroke-width="2" stroke-linecap="round" stroke-linejoin="round"/>
<path id="Vector_2" d="M37.1865 35.3734V23.1341L14.3555 10.5417" stroke="#1C1F35" stroke-width="2" stroke-linecap="round" stroke-linejoin="round"/>
<path id="Vector_3" d="M47.9918 17.0381L25.8669 29.6069L3.31836 17.0381" stroke="#1C1F35" stroke-width="2" stroke-linecap="round" stroke-linejoin="round"/>
<path id="Vector_4" d="M25.8661 29.6069L25.6543 54.7446" stroke="#1C1F35" stroke-width="2" stroke-linecap="round" stroke-linejoin="round"/>
</g>
<path id="Vector_5" d="M0.999642 13.5696L11.6348 7.41699" stroke="#1C1F35" stroke-width="2" stroke-linecap="round" stroke-linejoin="round"/>
<path id="Vector_6" d="M29.8458 1.50001L40.4863 7.64331" stroke="#1C1F35" stroke-width="2" stroke-linecap="round" stroke-linejoin="round"/>
<path id="Vector_7" d="M40.4862 42.1809L29.8457 48.3242" stroke="#1C1F35" stroke-width="2" stroke-linecap="round" stroke-linejoin="round"/>
</g>
</svg>
